<?xml version="1.0" standalone="no"?>
<!DOCTYPE svg PUBLIC "-//W3C//DTD SVG 20010904//EN"
 "http://www.w3.org/TR/2001/REC-SVG-20010904/DTD/svg10.dtd">
<svg version="1.0" xmlns="http://www.w3.org/2000/svg"
 width="566.000000pt" height="431.000000pt" viewBox="0 0 566.000000 431.000000"
 preserveAspectRatio="xMidYMid meet">
<g transform="translate(0.000000,431.000000) scale(0.100000,-0.100000)"
fill="#000000" stroke="none">
<path d="M1110 4190 c-13 -11 -28 -20 -35 -20 -6 0 -21 -9 -33 -20 -13 -12
-41 -23 -69 -26 -63 -7 -123 -25 -123 -37 0 -5 -8 -17 -18 -26 -10 -9 -24 -31
-31 -49 -8 -18 -23 -38 -34 -43 -19 -11 -19 -19 -15 -222 3 -148 8 -212 16
-215 8 -2 12 -43 12 -132 0 -138 0 -139 -58 -141 -17 -1 -21 -3 -9 -6 34 -9
16 -20 -44 -27 -34 -3 -169 -6 -301 -6 l-239 0 3 -127 c3 -116 5 -128 22 -131
21 -4 67 16 79 35 16 25 27 12 27 -31 0 -26 5 -46 13 -49 7 -2 19 -39 26 -81
8 -42 17 -76 21 -76 11 0 19 -69 30 -254 5 -97 13 -172 19 -176 10 -5 21 -104
38 -330 3 -36 8 -67 12 -70 4 -3 15 -66 24 -140 10 -74 21 -137 26 -140 10 -6
35 -168 40 -267 1 -7 7 -13 15 -13 16 0 26 -43 26 -111 0 -42 3 -49 20 -49 10
0 24 -9 30 -20 6 -11 17 -20 25 -20 8 0 20 -8 27 -18 7 -10 26 -27 43 -38 16
-10 50 -40 74 -67 25 -26 53 -47 63 -47 10 0 18 -5 18 -11 0 -5 17 -17 37 -26
21 -8 44 -24 51 -34 7 -10 19 -19 26 -19 8 0 21 -11 30 -25 9 -14 21 -25 27
-25 13 0 74 -60 82 -81 3 -9 21 -19 40 -23 19 -4 38 -13 41 -22 3 -8 19 -20
36 -25 16 -6 30 -18 30 -25 0 -8 14 -20 30 -25 17 -6 30 -15 30 -20 0 -5 7 -9
15 -9 8 0 15 -4 15 -10 0 -5 11 -10 25 -10 16 0 25 -6 25 -15 0 -18 39 -35 80
-35 16 0 33 -7 38 -16 9 -16 73 -43 105 -44 9 0 17 -4 17 -9 0 -4 27 -16 60
-25 33 -9 60 -21 60 -27 0 -5 7 -9 16 -9 31 0 94 -23 94 -34 0 -12 45 -36 67
-36 7 0 17 -9 23 -20 6 -11 17 -20 25 -20 14 0 54 -19 65 -30 3 -3 25 -12 49
-20 27 -9 47 -23 54 -37 5 -13 18 -23 28 -23 10 0 23 -8 28 -19 6 -10 31 -25
56 -32 25 -7 45 -19 45 -26 0 -7 17 -15 37 -19 46 -9 234 11 243 26 3 6 65 15
136 21 71 5 165 12 209 16 44 3 83 11 87 17 5 7 64 12 160 14 84 2 157 8 162
13 6 5 34 9 63 9 29 0 53 5 53 10 0 6 131 10 373 10 361 0 373 1 390 20 9 11
17 24 17 29 0 4 16 23 35 42 19 19 35 39 35 44 1 6 19 26 41 45 78 67 101 93
111 121 5 16 14 29 19 29 5 0 9 7 9 15 0 8 7 15 15 15 8 0 15 9 15 20 0 11 4
20 9 20 4 0 16 21 26 47 10 26 27 56 37 67 10 11 18 25 18 31 0 7 11 25 25 41
14 16 28 38 31 49 4 11 15 26 25 33 11 7 19 19 19 27 0 8 6 18 13 22 14 9 35
41 43 66 4 9 17 20 30 23 13 3 24 14 24 23 0 9 9 22 19 28 11 7 22 25 25 40 4
16 19 38 34 48 41 31 72 66 72 84 0 9 9 22 20 29 11 7 20 19 20 27 0 9 11 20
25 25 14 5 28 17 31 25 4 8 11 15 18 15 15 1 56 36 56 49 0 6 5 11 10 11 6 0
10 9 10 20 0 13 7 20 18 20 24 0 81 56 88 86 3 13 10 24 15 24 12 0 53 40 73
72 10 15 26 30 37 33 10 4 19 12 19 20 0 7 6 20 13 27 6 7 21 31 32 53 11 22
26 45 34 51 7 6 14 23 14 37 0 15 3 27 8 27 5 0 9 7 9 15 0 9 -6 12 -15 9 -8
-4 -15 -15 -15 -25 0 -10 -4 -19 -10 -19 -5 0 -10 -5 -10 -11 0 -13 -73 -89
-86 -89 -5 0 -17 -9 -27 -20 -9 -11 -23 -20 -31 -20 -8 0 -21 -8 -28 -17 -16
-22 -52 -43 -73 -43 -8 0 -19 -9 -25 -20 -6 -11 -16 -20 -22 -20 -6 0 -18 -8
-27 -18 -9 -10 -29 -26 -46 -36 -16 -11 -36 -28 -43 -38 -7 -10 -20 -18 -28
-18 -8 0 -19 -11 -24 -25 -5 -14 -16 -25 -25 -25 -8 0 -21 -11 -27 -25 -6 -14
-17 -25 -25 -25 -7 0 -16 -7 -19 -15 -3 -8 -15 -17 -25 -20 -11 -4 -24 -18
-29 -31 -5 -13 -16 -24 -25 -24 -8 0 -21 -11 -30 -23 -8 -13 -33 -30 -55 -37
-22 -7 -40 -19 -40 -27 0 -7 -9 -13 -20 -13 -21 0 -57 -17 -75 -36 -5 -6 -29
-17 -52 -24 -23 -7 -44 -19 -47 -26 -3 -8 -17 -14 -30 -14 -14 0 -31 -8 -38
-19 -7 -10 -28 -22 -47 -26 -20 -4 -35 -14 -38 -26 -3 -10 -15 -21 -27 -25
-26 -8 -86 -70 -86 -90 0 -8 -6 -17 -14 -20 -8 -3 -16 -14 -19 -25 -3 -10 -17
-23 -31 -29 -14 -5 -26 -15 -26 -22 0 -19 -54 -67 -89 -79 -17 -6 -31 -14 -31
-19 0 -4 -15 -13 -32 -21 -34 -13 -50 -25 -99 -73 l-29 -29 -131 5 c-74 3
-134 9 -137 15 -7 11 -37 17 -171 33 -47 6 -87 14 -90 19 -3 5 -52 17 -108 27
-67 11 -103 22 -103 30 0 14 -15 20 -82 29 -27 3 -48 10 -48 14 0 8 -73 27
-144 36 -27 4 -55 13 -63 21 -8 8 -32 17 -54 20 -22 4 -46 12 -52 18 -24 23
-69 36 -122 36 -34 0 -59 5 -69 15 -8 8 -45 23 -83 33 -37 9 -70 19 -73 22
-10 11 -62 30 -80 30 -10 0 -23 6 -27 13 -11 17 -51 34 -95 42 -21 3 -38 10
-38 15 0 9 -96 40 -127 40 -10 0 -24 9 -31 20 -7 11 -21 20 -32 20 -11 0 -20
7 -20 15 0 8 -17 22 -37 30 -20 8 -43 24 -50 35 -8 11 -20 20 -27 20 -7 0 -25
11 -40 25 -15 14 -38 25 -51 25 -23 0 -23 1 -28 133 -5 176 -28 471 -37 477
-4 3 -10 57 -13 120 -4 63 -11 202 -16 309 -6 107 -15 197 -20 200 -5 4 -11
107 -13 238 l-3 231 34 -14 c18 -8 34 -14 35 -14 1 0 10 -16 20 -35 18 -33 22
-35 68 -35 36 0 48 4 48 15 0 8 5 15 10 15 6 0 10 27 10 60 0 33 -4 60 -10 60
-5 0 -10 9 -10 20 0 11 -4 20 -10 20 -5 0 -10 9 -10 21 0 12 -8 23 -18 26 -10
2 -22 14 -27 26 -10 21 -18 22 -175 30 -94 4 -166 11 -168 17 -2 6 -28 10 -57
10 -30 0 -100 5 -156 12 -85 9 -102 14 -107 30 -2 10 -8 18 -13 18 -5 0 -9 10
-9 22 0 26 -31 98 -42 98 -4 0 -8 104 -8 231 0 186 3 233 14 245 9 9 36 14 73
14 32 0 75 3 96 6 l37 7 0 113 c0 113 0 114 -23 114 -13 0 -34 -9 -47 -20z
m50 -90 l0 -100 -25 0 c-14 0 -25 -4 -25 -10 0 -6 -32 -10 -75 -10 l-74 0 -6
-32 c-10 -54 -1 -488 10 -496 17 -12 32 -46 40 -89 3 -23 13 -44 21 -47 8 -3
50 -9 94 -12 44 -4 80 -10 80 -14 0 -8 102 -16 338 -26 139 -7 144 -8 153 -30
4 -13 15 -24 24 -24 8 0 15 -8 15 -18 0 -10 5 -23 10 -28 14 -14 24 -105 16
-138 -5 -21 -12 -26 -37 -26 -37 0 -69 16 -69 34 0 8 -20 22 -44 32 -25 11
-47 27 -50 37 -4 16 -21 17 -253 12 -297 -7 -349 -11 -357 -31 -4 -12 -49 -14
-268 -14 -254 0 -428 -13 -428 -32 0 -12 -26 -38 -38 -38 -6 0 -13 -7 -16 -16
-3 -9 -15 -14 -28 -12 -22 3 -23 7 -26 121 l-3 117 243 0 c274 0 357 9 389 39
21 20 22 25 17 193 -4 112 -10 174 -17 176 -7 2 -11 57 -11 167 0 156 1 165
23 189 35 39 47 55 47 64 0 5 16 24 37 41 26 22 46 31 72 31 50 0 108 18 114
35 3 7 22 17 41 21 21 3 36 12 36 20 0 8 7 14 15 14 12 0 15 -18 15 -100z
m381 -992 c1 -2 4 -133 8 -291 5 -182 12 -291 18 -295 6 -4 13 -65 16 -142 8
-228 29 -525 37 -530 8 -6 20 -148 29 -350 l6 -134 31 -7 c17 -3 41 -16 52
-27 12 -12 29 -22 37 -22 8 0 19 -9 25 -19 5 -11 25 -25 44 -32 19 -7 37 -21
39 -31 3 -10 14 -18 26 -18 11 0 25 -9 31 -20 6 -11 19 -20 30 -20 29 0 110
-23 110 -31 0 -10 58 -29 86 -29 13 0 27 -6 31 -12 11 -18 49 -38 72 -38 11 0
26 -7 34 -15 8 -8 47 -22 86 -30 39 -9 71 -20 71 -24 0 -13 66 -31 117 -31 29
0 57 -6 65 -13 16 -15 61 -33 106 -42 17 -4 32 -10 32 -15 0 -12 22 -18 104
-29 38 -6 72 -14 75 -20 3 -5 35 -15 71 -22 36 -7 72 -20 82 -30 9 -9 49 -21
97 -29 45 -7 81 -16 81 -20 0 -7 96 -24 189 -34 24 -2 47 -8 50 -13 10 -15
147 -33 249 -33 93 0 99 1 124 28 42 43 60 56 106 76 23 10 42 22 42 26 0 5
11 11 24 14 27 7 86 63 86 83 0 7 6 13 13 13 20 1 51 33 70 71 9 20 24 39 32
43 8 3 15 11 15 19 0 7 16 21 35 30 19 9 35 23 35 31 0 9 14 18 35 22 20 3 40
15 46 25 5 11 19 19 29 19 21 0 55 16 78 37 7 7 22 13 32 13 10 0 22 5 25 10
3 6 15 10 26 10 10 0 19 7 19 15 0 9 9 15 23 15 12 0 35 11 51 25 16 14 35 25
42 25 8 0 21 11 29 24 9 13 25 26 36 29 11 3 23 14 26 25 2 11 16 25 29 31 13
6 24 15 24 21 0 5 7 10 15 10 9 0 20 11 26 24 6 13 20 27 31 29 11 3 22 15 25
26 3 12 10 21 17 21 6 0 28 16 49 35 21 19 42 35 47 35 4 0 26 17 48 38 22 21
58 44 81 52 22 7 41 19 41 26 0 7 16 18 35 24 19 6 35 17 35 25 0 7 11 16 25
19 14 4 25 11 25 16 0 6 6 10 14 10 8 0 17 8 19 18 4 13 5 14 6 1 0 -8 -7 -24
-18 -35 -10 -11 -22 -30 -25 -42 -4 -12 -30 -45 -57 -73 -27 -28 -49 -54 -49
-58 0 -4 -11 -13 -25 -19 -14 -6 -25 -18 -25 -26 0 -22 -61 -86 -83 -86 -10 0
-21 -9 -24 -20 -3 -11 -11 -20 -18 -20 -8 0 -15 -10 -17 -22 -2 -13 -15 -29
-30 -36 -16 -7 -28 -17 -28 -23 0 -5 -11 -14 -25 -19 -14 -5 -29 -20 -34 -33
-5 -14 -17 -27 -25 -30 -9 -4 -16 -15 -16 -25 0 -22 -43 -68 -71 -77 -11 -4
-24 -23 -31 -46 -6 -22 -20 -45 -30 -50 -10 -5 -18 -16 -18 -24 0 -8 -11 -17
-25 -21 -15 -4 -25 -13 -25 -25 0 -10 -8 -24 -18 -31 -10 -7 -26 -30 -35 -50
-10 -21 -22 -38 -27 -38 -6 0 -16 -16 -24 -35 -8 -19 -19 -35 -24 -35 -6 0
-17 -18 -26 -40 -9 -22 -20 -40 -25 -40 -4 0 -16 -21 -26 -47 -10 -27 -25 -54
-32 -61 -7 -7 -13 -20 -13 -27 0 -8 -8 -16 -18 -19 -10 -4 -24 -23 -31 -44
-16 -44 -21 -50 -117 -138 -24 -22 -44 -44 -44 -48 0 -5 -17 -25 -38 -46 -20
-20 -42 -45 -48 -56 -11 -18 -31 -19 -432 -24 -377 -4 -423 -7 -434 -22 -11
-13 -40 -17 -168 -22 -201 -8 -284 -16 -290 -27 -3 -4 -51 -11 -105 -14 -121
-7 -228 -23 -235 -35 -3 -5 -51 -12 -106 -16 -92 -6 -102 -5 -120 13 -10 11
-38 25 -61 33 -23 7 -44 19 -47 27 -3 7 -17 18 -31 23 -14 5 -25 16 -25 24 0
8 -16 20 -35 26 -19 6 -35 16 -35 21 0 5 -8 9 -17 9 -10 0 -31 7 -47 15 -15 8
-35 15 -42 15 -8 0 -14 6 -14 14 0 8 -15 20 -34 26 -19 6 -37 17 -40 25 -3 8
-23 19 -45 26 -23 7 -41 16 -41 21 0 4 -7 8 -16 8 -21 0 -118 32 -124 41 -3 4
-30 14 -62 22 -31 8 -67 24 -79 36 -14 13 -36 21 -56 21 -23 0 -40 8 -55 25
-12 14 -30 25 -40 25 -10 0 -21 6 -24 14 -3 7 -22 19 -43 26 -20 6 -41 22 -47
33 -5 12 -19 23 -31 25 -13 2 -23 9 -23 16 0 15 -42 36 -70 36 -11 0 -20 6
-20 14 0 8 -11 23 -25 34 -14 11 -25 25 -25 31 0 6 -11 13 -24 17 -14 3 -32
17 -41 30 -8 13 -22 24 -30 24 -8 0 -19 9 -25 19 -5 11 -26 25 -45 31 -19 6
-35 18 -35 26 0 8 -10 14 -22 14 -12 0 -43 22 -74 52 -74 74 -127 118 -141
118 -6 0 -15 9 -18 20 -3 11 -14 20 -24 20 -15 0 -19 11 -23 71 -3 39 -11 76
-17 82 -6 6 -11 19 -11 29 0 10 -4 18 -9 18 -5 0 -11 30 -14 68 -5 83 -27 215
-37 222 -9 6 -40 240 -40 302 0 25 -5 48 -11 50 -6 2 -13 33 -15 68 -9 133
-27 270 -35 270 -5 0 -9 43 -9 96 0 106 -26 305 -41 315 -5 3 -12 29 -16 57
-3 29 -10 52 -14 52 -5 0 -9 25 -9 55 0 41 4 55 14 55 8 0 16 6 18 13 4 9 78
13 314 15 170 2 313 8 318 13 6 5 20 9 33 9 13 0 23 4 23 10 0 6 76 11 193 13
105 1 227 3 270 5 42 1 77 1 78 0z"/>
<path d="M883 3955 c0 -8 4 -12 9 -9 5 3 6 10 3 15 -9 13 -12 11 -12 -6z"/>
<path d="M1570 3146 c0 -2 8 -10 18 -17 15 -13 16 -12 3 4 -13 16 -21 21 -21
13z"/>
<path d="M371 2857 c-8 -10 -7 -14 2 -14 8 0 14 6 14 14 0 7 -1 13 -2 13 -2 0
-8 -6 -14 -13z"/>
<path d="M377 2735 c-4 -8 -3 -16 1 -19 4 -3 9 4 9 15 2 23 -3 25 -10 4z"/>
<path d="M5026 1492 c-3 -5 1 -9 9 -9 8 0 12 4 9 9 -3 4 -7 8 -9 8 -2 0 -6 -4
-9 -8z"/>
<path d="M4970 1417 c0 -2 6 -10 14 -16 11 -9 16 -9 22 1 4 7 4 10 -1 6 -4 -4
-14 -3 -22 3 -7 6 -13 9 -13 6z"/>
<path d="M4670 1206 c0 -2 7 -7 16 -10 8 -3 12 -2 9 4 -6 10 -25 14 -25 6z"/>
<path d="M920 1026 c0 -2 8 -10 18 -17 15 -13 16 -12 3 4 -13 16 -21 21 -21
13z"/>
<path d="M4060 731 c0 -6 4 -13 10 -16 6 -3 7 1 4 9 -7 18 -14 21 -14 7z"/>
<path d="M3446 652 c-3 -5 1 -9 9 -9 8 0 12 4 9 9 -3 4 -7 8 -9 8 -2 0 -6 -4
-9 -8z"/>
<path d="M4406 608 c3 -5 10 -6 15 -3 13 9 11 12 -6 12 -8 0 -12 -4 -9 -9z"/>
<path d="M1740 520 c6 -11 13 -20 16 -20 2 0 0 9 -6 20 -6 11 -13 20 -16 20
-2 0 0 -9 6 -20z"/>
<path d="M4326 528 c3 -5 10 -6 15 -3 13 9 11 12 -6 12 -8 0 -12 -4 -9 -9z"/>
<path d="M1879 453 c-12 -16 -12 -17 2 -6 9 7 20 9 24 5 5 -4 5 -1 1 6 -9 16
-11 15 -27 -5z"/>
<path d="M2060 360 c6 -11 13 -20 16 -20 2 0 0 9 -6 20 -6 11 -13 20 -16 20
-2 0 0 -9 6 -20z"/>
<path d="M3285 281 c-3 -5 -2 -12 3 -15 5 -3 9 1 9 9 0 17 -3 19 -12 6z"/>
<path d="M2289 213 c-13 -16 -12 -17 4 -4 16 13 21 21 13 21 -2 0 -10 -8 -17
-17z"/>
<path d="M1823 3155 c0 -8 4 -12 9 -9 5 3 6 10 3 15 -9 13 -12 11 -12 -6z"/>
<path d="M1823 2985 c0 -8 4 -12 9 -9 5 3 6 10 3 15 -9 13 -12 11 -12 -6z"/>
<path d="M3097 2620 c-3 -30 -10 -84 -13 -120 -4 -36 -11 -68 -16 -71 -5 -3
-12 -148 -15 -330 -4 -297 -12 -385 -34 -399 -4 -3 -13 -103 -20 -222 -13
-230 -25 -265 -47 -145 -7 34 -19 67 -27 73 -9 7 -15 27 -15 50 0 42 -27 124
-41 124 -5 0 -9 19 -9 43 0 23 -7 55 -15 71 -8 15 -15 36 -15 46 0 10 -3 20
-7 22 -5 2 -16 44 -26 93 -10 50 -23 92 -28 93 -5 2 -9 17 -9 32 0 44 -20 129
-34 143 -13 13 -46 107 -46 131 0 9 -4 16 -10 16 -5 0 -10 8 -10 18 0 22 -28
82 -39 82 -3 0 -13 15 -21 33 -14 30 -15 25 -18 -103 -2 -92 -6 -137 -15 -142
-8 -5 -14 -71 -19 -225 -9 -272 -18 -403 -28 -403 -5 0 -10 21 -13 48 -8 79
-29 182 -38 182 -5 0 -9 22 -9 49 0 31 -5 53 -15 61 -8 7 -15 19 -15 26 0 8
-4 14 -10 14 -5 0 -10 13 -10 29 0 17 -4 33 -10 36 -5 3 -10 15 -10 26 0 11
-6 22 -14 25 -8 3 -17 13 -20 22 -8 26 -29 55 -48 70 -10 7 -18 19 -18 27 0 8
-8 19 -19 24 -17 10 -19 5 -25 -47 -10 -96 -18 -137 -29 -144 -6 -4 -13 -65
-15 -152 l-5 -146 -120 0 c-92 0 -122 3 -131 14 -6 8 -33 16 -61 18 -48 3 -50
2 -50 -22 0 -16 8 -28 23 -35 12 -5 22 -15 22 -22 0 -8 12 -13 29 -13 22 0 30
6 35 25 l6 25 130 0 130 0 0 125 c0 69 4 125 8 125 8 0 27 96 39 198 5 44 16
54 27 25 8 -27 29 -56 49 -71 9 -7 17 -20 17 -28 0 -8 7 -17 15 -20 8 -4 15
-14 15 -24 0 -11 4 -21 9 -24 4 -3 11 -24 14 -47 3 -24 13 -46 25 -55 15 -10
20 -30 25 -85 3 -40 10 -75 15 -78 14 -9 23 -65 31 -196 4 -68 8 -96 9 -63 1
35 7 58 15 60 15 6 25 117 33 393 4 140 10 212 18 217 7 5 13 59 17 145 3 76
6 130 7 121 1 -9 8 -21 15 -25 20 -13 35 -47 42 -97 4 -25 11 -46 15 -46 5 0
16 -25 25 -55 8 -30 20 -55 25 -55 9 0 23 -62 35 -152 3 -27 10 -48 15 -48 4
0 16 -44 26 -97 9 -55 23 -103 31 -108 8 -6 18 -39 22 -74 4 -34 12 -66 17
-69 18 -13 34 -63 34 -107 0 -29 5 -47 16 -53 9 -5 20 -35 27 -75 6 -38 16
-67 23 -67 6 0 15 -10 19 -22 5 -14 12 49 17 157 6 99 14 182 19 183 5 2 9 27
9 57 0 29 7 72 15 95 12 33 15 95 15 281 0 153 4 239 10 239 6 0 10 33 11 78
0 70 25 310 28 270 0 -9 5 -18 11 -20 5 -1 17 -41 27 -88 9 -47 20 -86 25 -88
4 -2 8 -16 8 -31 0 -41 28 -141 45 -158 8 -8 15 -31 15 -51 1 -90 21 -286 30
-292 5 -3 17 -84 25 -180 9 -96 19 -177 24 -180 9 -5 15 -58 31 -234 5 -60 14
-112 20 -116 6 -3 18 -39 28 -78 9 -41 22 -72 29 -72 10 0 13 125 17 553 2
303 7 573 11 600 4 28 3 47 -3 47 -17 0 -22 -156 -22 -657 0 -271 -3 -493 -7
-493 -9 0 -43 109 -43 135 0 8 -4 15 -10 15 -5 0 -10 23 -10 50 0 66 -30 304
-40 310 -4 3 -10 50 -14 105 -8 121 -27 255 -36 255 -4 0 -10 59 -14 131 -7
121 -18 175 -39 190 -5 3 -16 48 -24 100 -9 52 -20 96 -24 97 -5 2 -9 11 -9
21 0 27 -30 135 -40 141 -4 3 -10 19 -12 35 -3 23 -5 17 -11 -25z m-1167 -931
c0 -11 -66 -23 -79 -14 -27 16 -9 30 34 27 25 -2 45 -8 45 -13z m3 -39 c-6
-23 -38 -27 -46 -6 -6 15 6 24 35 25 11 1 15 -5 11 -19z"/>
<path d="M3801 2270 c-2 -201 -12 -328 -29 -339 -5 -3 -14 -71 -20 -151 -11
-145 -17 -180 -32 -180 -4 0 -13 23 -20 51 -7 28 -19 53 -26 56 -8 3 -19 25
-26 50 -6 25 -17 47 -24 50 -8 3 -14 15 -14 27 0 12 -11 33 -25 48 -14 15 -25
34 -25 41 0 23 -29 87 -40 87 -6 0 -10 14 -10 31 0 31 -27 89 -42 89 -13 0 -9
-9 12 -30 12 -12 20 -33 20 -55 0 -18 6 -38 13 -42 15 -9 32 -51 42 -99 4 -20
14 -34 26 -37 13 -3 19 -14 19 -31 0 -15 6 -29 14 -32 8 -3 19 -25 25 -50 6
-25 18 -47 25 -50 7 -3 21 -34 31 -70 9 -35 21 -64 26 -64 5 0 10 -10 10 -22
2 -31 16 69 25 175 4 48 10 87 14 87 4 0 10 30 14 68 3 37 10 94 15 127 5 33
10 126 10 208 1 81 4 147 9 147 8 0 28 -79 38 -152 4 -27 10 -48 14 -48 4 0
16 -52 25 -115 10 -63 21 -115 25 -115 11 0 20 -40 30 -128 4 -41 12 -77 18
-81 13 -8 22 -51 32 -150 5 -47 13 -87 18 -90 10 -7 31 -139 36 -221 1 -30 3
25 4 123 1 110 6 177 12 177 6 0 10 23 10 50 l0 50 50 0 c35 0 52 -5 56 -14 6
-17 60 -23 267 -30 l137 -5 0 49 c0 49 -1 50 -30 50 -20 0 -30 -5 -30 -15 0
-11 -11 -15 -39 -15 -44 0 -65 -18 -32 -27 51 -13 13 -23 -89 -23 -60 0 -110
4 -110 9 0 10 -49 20 -136 27 l-61 6 -6 -78 c-4 -42 -8 -100 -8 -128 l-2 -51
-9 58 c-6 31 -14 57 -19 57 -5 0 -9 29 -9 64 0 36 -4 67 -9 70 -4 3 -11 24
-15 46 -3 22 -11 40 -16 40 -6 0 -10 18 -10 41 0 42 -29 180 -40 189 -3 3 -14
58 -25 123 -10 64 -22 117 -26 117 -4 0 -9 15 -12 33 -9 64 -31 152 -38 157
-4 3 -9 16 -12 30 -2 14 -5 -63 -6 -170z m779 -610 l0 -41 -37 7 c-21 4 -42
13 -48 19 -5 7 -17 15 -25 18 -8 3 4 6 28 6 30 1 42 5 42 16 0 8 9 15 20 15
17 0 20 -7 20 -40z"/>
<path d="M2703 2375 c0 -8 4 -12 9 -9 5 3 6 10 3 15 -9 13 -12 11 -12 -6z"/>
<path d="M335 2289 c-4 -6 -5 -12 -2 -15 2 -3 7 2 10 11 7 17 1 20 -8 4z"/>
<path d="M3897 2255 c-4 -8 -3 -16 1 -19 4 -3 9 4 9 15 2 23 -3 25 -10 4z"/>
<path d="M1651 2217 c-8 -10 -7 -14 2 -14 8 0 14 6 14 14 0 7 -1 13 -2 13 -2
0 -8 -6 -14 -13z"/>
<path d="M2299 2228 c-5 -18 -6 -38 -1 -34 7 8 12 36 6 36 -2 0 -4 -1 -5 -2z"/>
<path d="M3583 2055 c0 -8 4 -12 9 -9 5 3 6 10 3 15 -9 13 -12 11 -12 -6z"/>
<path d="M5450 1970 c-6 -11 -8 -20 -6 -20 3 0 10 9 16 20 6 11 8 20 6 20 -3
0 -10 -9 -16 -20z"/>
<path d="M2325 1931 c-3 -5 -2 -12 3 -15 5 -3 9 1 9 9 0 17 -3 19 -12 6z"/>
<path d="M4616 1732 c-3 -5 1 -9 9 -9 8 0 12 4 9 9 -3 4 -7 8 -9 8 -2 0 -6 -4
-9 -8z"/>
<path d="M1763 1715 c0 -8 4 -12 9 -9 5 3 6 10 3 15 -9 13 -12 11 -12 -6z"/>
<path d="M4409 1693 c-13 -16 -12 -17 4 -4 9 7 17 15 17 17 0 8 -8 3 -21 -13z"/>
<path d="M405 1631 c-3 -5 -2 -12 3 -15 5 -3 9 1 9 9 0 17 -3 19 -12 6z"/>
<path d="M1720 1426 c0 -2 8 -10 18 -17 15 -13 16 -12 3 4 -13 16 -21 21 -21
13z"/>
<path d="M4386 1168 c3 -5 10 -6 15 -3 13 9 11 12 -6 12 -8 0 -12 -4 -9 -9z"/>
<path d="M579 1133 c-12 -16 -12 -17 2 -6 9 7 20 9 24 5 5 -4 5 -1 1 6 -9 16
-11 15 -27 -5z"/>
<path d="M2210 1146 c0 -2 8 -10 18 -17 15 -13 16 -12 3 4 -13 16 -21 21 -21
13z"/>
<path d="M2383 1075 c0 -8 4 -12 9 -9 5 3 6 10 3 15 -9 13 -12 11 -12 -6z"/>
<path d="M2700 1000 c6 -11 13 -20 16 -20 2 0 0 9 -6 20 -6 11 -13 20 -16 20
-2 0 0 -9 6 -20z"/>
<path d="M3364 976 c1 -8 5 -18 8 -22 4 -3 5 1 4 10 -1 8 -5 18 -8 22 -4 3 -5
-1 -4 -10z"/>
<path d="M2845 920 c10 -11 20 -20 23 -20 3 0 -3 9 -13 20 -10 11 -20 20 -23
20 -3 0 3 -9 13 -20z"/>
<path d="M3171 857 c-8 -10 -7 -14 2 -14 8 0 14 6 14 14 0 7 -1 13 -2 13 -2 0
-8 -6 -14 -13z"/>
<path d="M4019 853 c-13 -16 -12 -17 4 -4 16 13 21 21 13 21 -2 0 -10 -8 -17
-17z"/>
<path d="M4700 820 c-6 -11 -8 -20 -6 -20 3 0 10 9 16 20 6 11 8 20 6 20 -3 0
-10 -9 -16 -20z"/>
<path d="M2016 252 c-3 -5 1 -9 9 -9 8 0 12 4 9 9 -3 4 -7 8 -9 8 -2 0 -6 -4
-9 -8z"/>
</g>
</svg>
